<?xml version="1.0" encoding="utf-8"?>
<!-- Generator: Adobe Illustrator 27.5.0, SVG Export Plug-In . SVG Version: 6.00 Build 0)  -->
<svg version="1.1" xmlns="http://www.w3.org/2000/svg" xmlns:xlink="http://www.w3.org/1999/xlink" x="0px" y="0px"
	 viewBox="0 0 1100 800" style="enable-background:new 0 0 1100 800;" xml:space="preserve">
<g id="background">
	<rect style="fill:#D5E6F4;" width="1100" height="800"/>
</g>
<g id="shadow">
	<g style="opacity:0.6;">
		<path style="fill:#F7F7F7;" d="M502.989,624.118c-27.109,0.084-54.218,0.762-81.279,3.892c-10.203,1.18-20.193,3.776-30.419,4.823
			c-20.427,2.092-40.489,5.993-60.988,7.793c-16.508,1.449-33.085,2.305-49.545,4.143c-15.432,1.724-32.517,1.326-47.83-1.522
			c-11.337-2.109-22.725-3.296-33.872-6.682c-12.469-3.789-26.015-6.498-39.006-6.4c-18.525,0.139-36.567,0.155-54.295,6.845
			c-6.224,2.348-13.842,6.209-18.568,11.137c-10.818,11.282-12.283,39.432-1.481,51.133c18.194,19.693,57.026,27.42,82.528,27.785
			c27.946,0.4,55.094-1.758,83.081-3.026c26.006-1.179,51.947-2.856,77.995-2.797c53.202,0.121,106.411,0,159.517-3.696
			c49.894-3.472,99.913-2.28,149.917-2.28c51.276,0,102.206,0.419,153.113,7.506c22.181,3.088,44.778,4.169,67.069,6.332
			c19.964,1.938,39.149-0.038,59.034-1.829c16.697-1.504,33.285-5.964,48.454-13.503c12.008-5.968,33.414-24.507,37.096-38.752
			c10.323-39.935-145.485-38.975-169.408-38.885c-26.762,0.101-53.736,1.016-80.477-0.045c-11.248-0.446-22.331-2.733-33.31-5.238
			c-10.935-2.495-21.952-1.861-33.042-2.91c-46.243-4.374-92.59-3.734-138.981-3.734
			C533.197,624.209,518.093,624.071,502.989,624.118z"/>
	</g>
</g>
<g id="object">
	<g>
		<g>
			<polygon style="fill:#F4D0C1;" points="263.729,197.895 265.25,181.628 258.326,180.675 254.818,191.584 251.752,189.614 
				252.147,203.692 259.211,205.654 			"/>
			<polygon style="fill:#BCBEC0;" points="160.872,279.674 233.364,252.383 251.489,201.693 260.619,205.019 259.28,267.918 
				191.426,317.277 			"/>
		</g>
		<g id="XMLID_198_">
			<polygon style="fill:#E4D2B8;" points="548.297,336.952 547.511,345.082 532.55,348.436 525.121,341.132 526.333,331.707 
				534.342,332.291 534.859,330.251 537.679,328.913 			"/>
		</g>
		<g>
			<g>
				<g>
					<polygon style="fill:#3B455A;" points="899.642,463.45 902.838,537.569 893.47,663.597 879.453,664.593 862.422,550.13 
						838.862,453.272 					"/>
					<polygon style="fill:#2A313F;" points="879.953,670.498 895.65,677 902.691,668.882 894.573,661.842 879.415,662.919 					"/>
				</g>
				<g>
					<polygon style="fill:#3B455A;" points="800.414,437.222 797.338,493.247 806.465,659.832 820.5,660.534 841.536,551.276 
						860.089,431.46 					"/>
					<polygon style="fill:#2A313F;" points="820.124,666.448 804.567,673.279 797.357,665.31 805.325,658.101 820.503,658.859 					
						"/>
				</g>
				<g>
					<path style="fill:#305399;" d="M882.021,272.175l-43.798-4.692c0,0-24.365,2.604-40.898,60.467
						c-9.198,32.193-11.998,82.913-12.672,121.582c1.034,5.516,7.044,29.677,32.455,25.579
						c43.637-7.038,66.863-14.077,85.867-10.557c16.188,3.519,14.819-18.768,13.04-35.777l-6.451-52.626L882.021,272.175z"/>
				</g>
				<g>
					<path style="fill:#C1755D;" d="M873.564,217.657c-11.04-2.434-22.401-4.614-33.453-2.426c-2.421,0.479-5.018,1.321-6.331,3.411
						c-0.509,0.81-0.778,1.743-1.026,2.666c-2.789,10.366-6.326,25.733,0.498,35.284c1.301,1.821,3.049,3.267,4.927,4.441
						c2.511,1.569,5.29,2.636,8.166,3.204c-0.595,2.577-1.423,5.101-2.472,7.529c2.527,3.81,14.316,4.267,16.496,0.614
						c0.122-3.161,0.244-6.322,0.366-9.483c1.435-0.58,2.822-1.285,4.123-2.142c5.038-3.318,8.358-8.354,10.286-13.988
						c2.1-6.134,5.054-11.966,6.972-18.218c0.699-2.278,1.25-4.877,0.052-6.937c-1.276-2.192-4.029-2.938-6.505-3.49
						C874.965,217.968,874.265,217.812,873.564,217.657z"/>
					<path style="fill:#2E3644;" d="M836.82,223.584c5.456-3.509,13.642-5.02,18.773-4.648
						c15.511,1.124,21.193,12.515,22.022,26.776c4.273-5.431,12.292-12.262,12.776-19.251c0.396-5.72-0.395-13.521-3.599-18.461
						c-2.999-4.622-10.667-7.161-15.227-9.84c-4.298-2.525-8.597-5.05-12.895-7.575c-0.894-0.525-1.813-1.06-2.834-1.237
						c-1.208-0.21-2.439,0.099-3.627,0.406c-10.159,2.626-20.319,5.251-30.478,7.877c-1.952,0.504-4.175,1.241-4.894,3.124
						c-0.437,1.146-0.18,2.425,0.082,3.623c1.153,5.274,3.368,10.664,3.916,16.007c0.62,3.104,2.471,19.013,7.967,17.177
						c1.614-2.639,1.856-5.889,3.113-8.715C832.843,226.759,834.607,225.007,836.82,223.584z"/>
				</g>
			</g>
		</g>
		<g id="XMLID_179_">
			<g id="XMLID_181_">
				<g id="XMLID_195_">
					<g id="XMLID_197_">
						<path style="fill:#2A313F;" d="M689.239,644.383c1.496-1.647,3.242-2.546,5.214-2.235c1.894,0.298,3.598,1.582,4.38,3.299
							c0.533,1.171,0.645,2.477,0.751,3.755c0.546,6.612,0.497,22.31-8.31,24.57c-3.701,0.949-6.763-1.681-7.751-5.004
							C682.033,663.76,684.237,649.889,689.239,644.383z"/>
					</g>
					<g id="XMLID_196_">
						<path style="fill:#EFC4B1;" d="M686.106,544.638l0.461,40.329c-0.536,17.913,2.261,35.926,1.725,53.841
							c-0.124,4.119-1.197,8.464-0.159,12.547c1.015,3.994,4.26,4.7,7.591,2.677c4.463-2.71,3.744-9.037,4.487-13.654
							c2.042-12.685,4.437-25.311,6.57-37.981c1.045-6.212-1.11-14.917-0.641-21.203l6.515-33.798L686.106,544.638z"/>
					</g>
				</g>
				<g id="XMLID_194_">
					<polygon style="fill:#305399;" points="732.184,479.475 714.632,557.444 710.903,631.075 683.072,630.45 675.504,424.494 
						729.457,425.474 					"/>
				</g>
				<g id="XMLID_189_">
					<g id="XMLID_191_">
						<g id="XMLID_193_">
							<path style="fill:#2A313F;" d="M649.43,642.917c1.561-1.56,3.34-2.356,5.292-1.93c1.875,0.41,3.519,1.795,4.224,3.56
								c0.481,1.203,0.537,2.517,0.588,3.802c0.262,6.649-0.458,22.357-9.333,24.099c-3.73,0.732-6.669-2.081-7.512-5.465
								C641.419,661.885,644.209,648.133,649.43,642.917z"/>
						</g>
						<g id="XMLID_192_">
							<path style="fill:#EFC4B1;" d="M664.1,550.299l-2.362,40.263c-0.193,11.19-1.684,22.292-2.842,33.406
								c-1.076,10.323,0.599,21.076-4.797,30.465c-1.692,2.944-5.112,4.904-7.501,1.327c-1.842-2.757-0.748-7.355-1.101-10.483
								c-1.442-12.766-3.239-25.49-4.772-38.245c-0.752-6.253,1.811-14.849,1.639-21.15l-4.915-34.065L664.1,550.299z"/>
						</g>
					</g>
					<g id="XMLID_190_">
						<polygon style="fill:#305399;" points="628.879,474.707 626.614,550.393 638.492,626.931 666.803,627.778 665.553,544.945 
							680.534,476.253 685.563,431.289 640.641,425.991 						"/>
					</g>
				</g>
				<g id="XMLID_188_">
					<polygon style="fill:#3B455A;" points="664.416,271.096 712.812,269.94 740.872,322.126 730.898,371.005 729.123,429.5 
						660.087,430.442 637.372,426.754 643.404,364.254 639.946,280.765 					"/>
				</g>
				<g id="XMLID_187_">
					<polygon style="fill:#3B455A;" points="656.793,305.478 639.318,359.048 613.236,368.412 541.884,349.187 551.476,334.355 
						614.229,336.396 640.042,283.098 					"/>
				</g>
				<g id="XMLID_182_">
					<g id="XMLID_186_">
						<path style="fill:#EFC4B1;" d="M667.446,230.547c7.296-21.212,35.299-13.262,41.071,5.624
							c3.766,12.32-5.749,28.308-18.515,31.846c-0.056,0.485-0.099,0.938-0.1,1.322c-0.009,1.978-0.253,3.927-0.546,5.903
							c-0.109,0.737-11.281-1.41-12.527-1.655c-0.436-0.086-0.922-0.204-1.157-0.57c-0.451-0.702,0.282-2.767,0.364-3.547
							c0.097-0.92,0.193-1.84,0.29-2.76c-6.297-3.074-10.271-9.62-11.38-16.284C663.832,243.732,665.254,236.921,667.446,230.547z"
							/>
					</g>
					<g id="XMLID_183_">
						<g id="XMLID_185_">
							<path style="fill:#2E3644;" d="M685.715,211.38c1.501,1.524,2.092,3.651,2.525,5.692c0.259,1.219,0.481,2.48,0.22,3.688
								c-1.041,4.815-5.816,4.564-9.509,6.116c-4.555,1.914-8.482,5.438-11.033,9.496c-3.994,6.355-2.197,14.532-0.577,21.542
								c0.571,2.47,1.719,6.143-0.196,8.346c-1.947,2.239-6.446,1.893-8.778,0.741c-2.13-1.052-3.88-2.999-6.22-3.391
								c-2.476-0.415-5.822,0.674-6.974-1.598c-0.32-0.632-0.35-1.404-0.755-1.983c-1.368-1.956-4.771,0.335-6.699-1.044
								c-1.186-0.848-1.178-2.656-0.776-4.086c0.401-1.431,1.076-2.88,0.797-4.335c-0.24-1.251-1.142-2.239-1.7-3.377
								c-1.101-2.247-0.721-5.174,0.919-7.072c3.049-3.528,8.949-2.859,12.215-6.177c1.702-1.729,2.361-4.223,2.996-6.583
								s1.396-4.848,3.215-6.448c2.247-1.976,5.492-1.64,7.709-3.983c1.303-1.377,2.172-3.169,3.633-4.367
								c1.927-1.579,5.695-2.793,8.091-3.599C678.622,207.682,682.874,208.495,685.715,211.38z"/>
						</g>
						<g id="XMLID_184_">
							<path style="fill:#2E3644;" d="M703.428,245.23c0.13,6.982-3.338,14.529-0.121,20.675c3.245,6.202,11.336,7.32,18.232,7.643
								c1.134,0.053,15.687,1.31,15.749,1.034c1.09-4.863,2.217-9.822,4.758-14.092c2.541-4.27,6.791-7.808,11.658-8.111
								c-1.404-0.244-2.112-1.963-1.95-3.412c0.162-1.449,0.913-2.757,1.347-4.149c1.066-3.422,0.029-7.414-2.552-9.819
								c-5.148-4.798-14.482-2.805-18.895-8.316c-2.736-3.417-2.41-8.374-3.844-12.546c-2.773-8.067-11.605-9.755-18.206-13.398
								c-6.968-3.846-13.53-5.953-21.573-4.613c-9.97,1.661-17.381,11.812-13.536,21.364c4.932,12.251,24.649,11.194,28.341,23.634
								C703.232,242.459,703.402,243.833,703.428,245.23z"/>
						</g>
					</g>
				</g>
			</g>
			<g id="XMLID_180_">
				<polygon style="fill:#E3E3E4;" points="698.495,270.819 683.482,292.039 676.424,291.461 664.66,269.94 				"/>
			</g>
		</g>
		<g>
			<polygon style="fill:#2A313F;" points="310.077,654.633 308.976,663.202 325.011,673.974 334.681,666.507 327.215,656.836 
				311.179,646.065 			"/>
			<g>
				<polygon style="fill:#3B455A;" points="309.535,651.757 321.902,542.478 307.023,420.141 310.369,394.118 376.827,391.593 
					379.225,433.949 368.069,542.646 326.095,657.341 				"/>
			</g>
			<g>
				<polygon style="fill:#3B455A;" points="425.591,403.839 425.766,514.115 403.569,656.077 387.592,655.918 378.81,524.636 
					358.256,393.237 				"/>
				<polygon style="fill:#2A313F;" points="387.617,662.656 404.808,671.467 413.533,662.914 404.98,654.189 387.703,654.017 				
					"/>
			</g>
			<g>
				<path style="fill:#305399;" d="M300.145,441.344c0.152-4.779,0.418-8.767,0.456-10.191c0.342-12.819,1.484-25.61,3.089-38.338
					c1.438-11.406,3.253-39.722,5.205-51.058c1.612-9.36,7.228-32.721,11.286-41.403c10.091-21.589,6.973-23.584,51.301-29.994
					c19.427-2.81,24.019,9.298,39.902,23.221c1.566,1.373,1.48,9.549,1.844,11.714c0.64,3.813,1.326,7.619,2.112,11.408
					c0.618,2.978,1.3,5.946,2.065,8.895l-0.001-0.001c0,0,13.334,60.678,22.151,73.565c8.817,12.887,27.034,30.903-3.438,41.904
					c-5.4,1.746-10.834,3.407-16.455,4.294c0,0-24.921-2.769-37.737-2.674c-11.804,0.088-23.656,1.283-35.26,3.284
					c-7.76,1.297-15.678,3.182-22.62,6.808c-6.622,3.459-11.402,8.548-18.122,12.13c-0.636,0.339-1.334,0.69-2.058,0.59
					C300.006,464.963,299.825,451.402,300.145,441.344z"/>
			</g>
			<g>
				<path style="fill:#F4D0C1;" d="M371.534,276.448c-2.236,1.105-7.516,1.501-13.022-0.656c-1.11-0.435-1.859-1.505-1.843-2.696
					c0.044-3.345,0.313-6.687,0.805-9.996c-4.13-1.452-8.903-3.63-9.623-7.949c-0.227-1.36,0.008-2.75,0.243-4.109
					c0.971-5.618,1.941-11.235,2.912-16.853c0.336-1.943,0.693-3.943,1.75-5.608c1.854-2.921,5.452-4.199,8.861-4.791
					c8.699-1.51,18.178,0.374,24.923,6.072c1.795,1.516,3.418,3.339,4.21,5.552c1.22,3.411,0.307,7.174-0.613,10.678
					c-0.849,3.235-1.698,6.469-2.548,9.704c-0.977,3.72-2.387,7.949-5.972,9.344c-1.903,0.741-4.15,0.524-5.873,1.62
					C372.705,268.694,373.115,273.212,371.534,276.448z"/>
				<path style="fill:#2E3644;" d="M421.74,220.425c0.854-1.403,1.775-2.757,2.805-4.026c2.231-2.75,4.979-5.107,6.774-8.16
					c1.795-3.052,2.426-7.19,0.273-10.001c-1.39-1.814-3.645-2.721-5.838-3.366c-7.224-2.126-15.02-2.27-22.317-0.412
					c-6.951,1.769-13.171,4.699-20.168,2.086c-6.574-2.455-11.322-1.455-18.193,0.997c-7.435,2.653-17.417,3.279-24.147,7.024
					c-2.81,1.564-5.053,4.008-6.801,6.708c-6.056,9.354-6.09,22.251-0.082,31.636c1.348,2.106,2.961,4.03,4.655,5.868
					c3.508,3.804,7.704,8.503,12.529,9.913c0.115-4.317-3.817-17.928-0.502-21.466c5.261-5.614,17.156-3.656,23.682-2.273
					c7.119,1.508,13.464,6.549,20.522,7.626c5.079,0.775,11.56-1.715,15.879-4.34C416.14,234.995,418.621,225.546,421.74,220.425z"
					/>
			</g>
			<polygon style="fill:#305399;" points="334.681,278.657 307.023,302.892 276.168,367.733 315.139,414.097 321.844,388.17 			"/>
		</g>
		<g>
			<g>
				<polygon style="fill:#305399;" points="154.994,464.612 92.827,445.685 111.45,551.643 109.415,644.089 109.254,644.713 
					109.401,644.721 109.397,644.923 121.474,645.385 121.476,645.372 121.925,645.397 144.079,561.875 153.305,473.725 
					153.305,473.725 				"/>
				<polygon style="fill:#2A313F;" points="121.088,649.614 108.612,650.008 106.029,660.701 106.348,660.776 106.269,660.79 
					127.56,671.821 137.414,672.353 138.022,661.09 135.266,659.303 				"/>
			</g>
			<g>
				<polygon style="fill:#305399;" points="202.919,463.905 195.04,647.59 183.017,648.823 165.295,550.891 138.714,453.868 				"/>
				<polygon style="fill:#2A313F;" points="195.25,651.832 211.73,659.976 210.663,667.594 181.892,664.918 182.952,653.969 				"/>
			</g>
			<g>
				<path style="fill:#BCBEC0;" d="M77.484,497.567c-2.16-30.953,22.736-130.279,22.736-130.279l-0.004-0.002
					c2.665-9.342,4.632-18.823,5.703-28.304c0.762-6.749,18.749-83.719,17.41-83.779c13.904,0.622,40.566-3.414,51.122,6.151
					c0.301,0.273,0.59,0.558,0.865,0.854c8.271,8.912,12.956,27.297,17.066,38.578c5.399,14.818,9.655,30.053,12.705,45.527
					c2.667,13.531,4.41,27.224,5.757,40.943c1.158,11.794,0.836,23.564,1.566,35.177c0.808,12.856,5.063,26.7,8.296,39.138
					c3.255,12.526,7.288,24.88,12.716,36.645c-13.604,6.486-28.902,8.566-43.965,9.05c-15.063,0.483-30.15-0.546-45.207,0.111
					c-12.732,0.555-25.588,2.307-38.14,0.106C96.126,505.73,86.839,501.57,77.484,497.567L77.484,497.567z"/>
			</g>
			<g>
				<path style="fill:#2E3644;" d="M169.918,221.459c6.421,2.95,13.25,10.829,13.054,18.349c-0.094,3.621-2.015,6.486-1.962,10.366
					c0.075,7.649-11.29,15.98-3.987,23.153c3.753,3.687,9.474,4.269,14.722,4.646c0.636,0.046,1.304,0.086,1.884-0.178
					c0.956-0.436,1.394-1.596,1.343-2.645c-0.051-1.049-0.485-2.035-0.832-3.026c-3.625-10.371,1.058-22.716,1.35-33.395
					c0.292-10.658-2.552-22.077-11.472-28.765c-5.8,1.949-10.089,4.543-12.813,10.022L169.918,221.459z"/>
				<path style="fill:#F4D0C1;" d="M167.266,266.986c7.189-1.113,13.17-6.609,16.348-13.152c3.178-6.543,3.901-14.017,3.73-21.288
					c-0.569-24.199-30.555-24.987-42.103-7.374C135.176,240.521,146.364,270.22,167.266,266.986z"/>
			</g>
		</g>
		<g>
			<rect x="751.542" y="409.903" style="fill:#7DB5DB;" width="238.247" height="153.737"/>
			<g>
				<polygon style="fill:#7DB5DB;" points="958.054,357.851 870.666,357.851 783.277,357.851 745.249,402.652 870.666,402.652 
					996.083,402.652 				"/>
				<rect x="745.249" y="402.652" style="fill:#6C9FBC;" width="250.834" height="16.149"/>
				<polygon style="fill:#5C8BA0;" points="823.579,372.997 817.421,380.251 917.149,380.251 910.991,372.997 				"/>
			</g>
			<polygon style="fill:#9DD0ED;" points="751.542,418.801 989.789,441.009 989.789,418.801 			"/>
			<polygon style="fill:#F7F7F7;" points="768.69,457.58 970.248,451.337 965.771,457.58 973.68,465.113 967.183,476.28 
				973.68,482.628 968.878,486.866 978.454,502.686 964.641,514.076 971.42,521.077 770.562,526.698 774.799,519.001 
				768.69,519.001 775.082,501.838 764.629,493.588 770.844,484.996 768.302,480.597 773.387,473.001 764.629,462.571 			"/>
			<g>
				<path style="fill:#3B455A;" d="M810.76,491.274c-1.167-12.768-13.185-27.802-27.239-24.165c-1.04,0.269-1.64,0.918-1.9,1.683
					c-0.404,0.618-0.587,1.402-0.377,2.308c3.271,14.081,6.03,28.266,8.221,42.555c0.274,1.786,1.784,2.685,3.217,2.729
					c4.507,1.498,10.443-4.399,12.833-7.446C809.417,503.967,811.335,497.569,810.76,491.274z M802.556,502.72
					c-0.926,1.677-2.094,3.228-3.484,4.551c-0.989,0.954-2.079,1.769-3.27,2.445c-0.374,0.113-0.691,0.215-0.974,0.312
					c-2.007-12.602-4.403-25.127-7.222-37.573c9.031-0.298,16.383,10.921,17.224,18.956
					C805.24,495.322,804.459,499.272,802.556,502.72z"/>
				<path style="fill:#3B455A;" d="M831.192,469.891c-4.244-1.28-8.874-0.33-12.307,4.037c-5.072,6.453-5.122,16.249-3.309,23.867
					c1.753,7.366,6.349,16.104,14.731,17.079c12.055,1.402,13.488-11.636,13.598-20.602c0.061-5.014-0.791-10.255-2.674-14.911
					C839.364,474.746,835.474,471.183,831.192,469.891z M830.191,508.696c-13.98-3.458-12.176-39.639,2.027-32.348
					c4.654,2.389,5.441,10.437,5.716,15.003C838.265,496.853,838.633,510.784,830.191,508.696z"/>
				<path style="fill:#3B455A;" d="M869.318,470.826c-0.028,0.359-0.057,0.719-0.085,1.078c-0.029,0.372,0.016,0.694,0.094,0.991
					c0.03,6.792,0.06,13.583,0.089,20.375c-0.834-1.871-1.714-3.726-2.624-5.572c-3.298-6.684-6.47-13.705-11.701-19.121
					c-1.826-1.891-5.044-0.273-5.013,2.213c0.165,13.274,0.596,26.539,1.295,39.796c0.201,3.805,6.131,3.684,5.93-0.137
					c-0.537-10.175-0.912-20.355-1.134-30.541c2.076,3.534,3.806,7.327,5.572,10.9c3.418,6.918,6.245,13.967,7.88,21.521
					c0.725,3.348,5.82,2.33,5.806-0.923c-0.06-13.572-0.119-27.145-0.179-40.717C875.231,466.8,869.613,467.098,869.318,470.826z"/>
				<path style="fill:#3B455A;" d="M908.471,506.584c-3.422-13.41-7.49-26.618-12.208-39.629c-1.011-2.79-4.834-2.702-5.718,0.132
					c-4.286,13.738-7.312,27.751-9.078,42.034c-0.463,3.746,5.287,5.225,5.754,1.444c0.591-4.78,1.334-9.528,2.21-14.248
					c3.309-0.352,6.622-0.518,9.949-0.499c1.194,4.14,2.342,8.294,3.409,12.473C903.732,511.99,909.415,510.284,908.471,506.584z
					 M890.631,490.259c0.904-4.256,1.92-8.488,3.055-12.695c1.381,4.09,2.683,8.204,3.939,12.332
					C895.289,489.925,892.958,490.047,890.631,490.259z"/>
				<path style="fill:#3B455A;" d="M929.697,463.678c-8.68,1.265-17.297,2.829-25.859,4.736c-3.723,0.829-2.008,6.509,1.708,5.682
					c3.65-0.813,7.312-1.559,10.983-2.252c0.204,12.02,0.721,24.027,1.572,36.02c0.269,3.795,6.201,3.68,5.93-0.137
					c-0.872-12.299-1.398-24.613-1.591-36.941c2.46-0.418,4.924-0.817,7.395-1.177C933.563,469.065,933.472,463.128,929.697,463.678
					z"/>
				<path style="fill:#3B455A;" d="M957.346,504.835c-4.686,0.206-9.372,0.412-14.058,0.618l-0.285-13.021
					c2.316-0.117,4.63-0.109,6.948,0.04c1.6,0.102,2.931-1.531,2.896-3.033c-0.04-1.72-1.428-2.794-3.033-2.896
					c-2.316-0.148-4.627-0.156-6.941-0.04l-0.363-16.634c4.096,0.055,8.188,0.191,12.276,0.463c3.808,0.253,3.648-5.678-0.14-5.93
					c-4.028-0.267-8.063-0.43-12.099-0.487c-5.247-0.074-6.038,2.837-5.938,7.417c0.091,4.179,0.183,8.358,0.274,12.537
					c0.174,7.939,0.347,15.878,0.52,23.816c0.003,0.127,0.006,0.254,0.008,0.381c0.038,1.74,0.696,3.552,2.884,3.456
					c5.729-0.252,11.458-0.504,17.187-0.755C961.292,510.598,961.168,504.667,957.346,504.835z"/>
			</g>
		</g>
		<polygon style="fill:#C1755D;" points="785.661,389.716 786.13,397.772 796.126,409.508 802.147,403.47 797.351,392.804 
			799.763,388.894 795.774,384.552 		"/>
		<polygon style="fill:#305399;" points="838.224,267.483 822.036,272.41 762.914,334.346 759.395,354.757 787.659,401.423 
			795.29,384.318 783.325,349.83 802.329,336.458 827.666,279.448 		"/>
		<g>
			<g>
				<g>
					<g>
						<path style="fill:#F4BDB8;" d="M594.285,264.537c-26.01-5.496-60.892,4.576-71.676,26.376
							c-5.002-23.795-43.551-42.919-70.114-44.066c-70.095-3.025-103.539,72.584-80.828,129.14
							c12.224,30.439,31.819,58.18,53.805,83.643c18.412,21.323,66.989,67.751,67.169,67.637
							c0.147,0.155,58.779-32.727,81.932-48.799c27.649-19.192,53.549-41.184,72.984-67.623
							C683.669,361.72,662.925,279.041,594.285,264.537z"/>
					</g>
					<g style="opacity:0.12;">
						<path style="fill:#000100;" d="M631.874,414.457c-19.978,19.03-42.523,36.416-66.424,50.77
							c-23.114,13.881-49.566,25.176-77.281,26.565c-13.312,0.667-26.019-1.264-37.727-5.606
							c19.926,20.14,41.725,40.912,41.846,40.836c0.146,0.156,58.779-32.727,81.932-48.798
							c27.649-19.192,53.549-41.184,72.984-67.623c6.289-8.555,10.848-18.129,13.735-28.182
							C652.183,393.821,642.346,404.482,631.874,414.457z"/>
					</g>
				</g>
			</g>
			<path style="fill:#FFFFFF;" d="M679.939,438.461c0.932-7.927-4.718-15.123-12.648-16.087c-7.951-0.967-15.18,4.694-16.147,12.644
				c-0.001,0.005,0,0.011-0.001,0.016l-17.104,60.605c-4.027,14.268-13.765,26.242-26.914,33.091l-48.134,25.073l35.363-41.503
				c0.586-0.573,1.123-1.199,1.598-1.875l0.017-0.02l-0.003-0.003c1.208-1.73,2.026-3.77,2.299-6.01
				c0.889-7.306-4.314-13.95-11.62-14.839c-3.315-0.403-6.487,0.457-9.053,2.189l-0.007-0.008l-47.912,34.225
				c-20.706,14.79-34.247,37.597-37.32,62.857l-3.423,28.141c-2.318,19.056,11.25,36.384,30.307,38.702
				c7.366,0.896,14.461-0.602,20.544-3.853c1.664-0.889,3.253-1.904,4.747-3.046l98.426-63.158
				c13.115-8.416,21.796-22.241,23.678-37.71l13.313-109.43L679.939,438.461z"/>
			<path style="fill:#FFFFFF;" d="M332.544,396.2c0.996-7.919,8.206-13.551,16.137-12.586c7.951,0.967,13.612,8.196,12.644,16.147
				c-0.001,0.005-0.002,0.01-0.003,0.016l2.074,62.939c0.488,14.818,7.072,28.776,18.195,38.578l40.719,35.882l-24.381-48.771
				c-0.432-0.698-0.803-1.433-1.102-2.204l-0.012-0.023l0.003-0.002c-0.758-1.969-1.063-4.146-0.791-6.386
				c0.889-7.306,7.532-12.509,14.839-11.62c3.315,0.403,6.188,1.999,8.264,4.296l0.009-0.005l38.308,44.714
				c16.556,19.323,24.234,44.712,21.161,69.971l-3.423,28.141c-2.318,19.056-19.646,32.625-38.702,30.307
				c-7.366-0.896-13.895-4.052-19.021-8.666c-1.402-1.262-2.702-2.628-3.879-4.096l-80.412-84.914
				c-10.715-11.315-15.828-26.818-13.946-42.287l13.313-109.43H332.544z"/>
		</g>
		<g>
			<g id="XMLID_178_">
				<polygon style="fill:#E4D2B8;" points="674.412,439.278 681.519,443.303 678.498,458.335 668.803,462.151 660.686,457.21 
					664.477,450.131 662.823,448.829 662.748,445.709 				"/>
			</g>
			<g id="XMLID_177_">
				<polygon style="fill:#3B455A;" points="714.885,280.909 731.464,308.9 730.692,377.794 687.42,446.61 671.934,438.625 
					706.032,377.781 699.781,330.416 				"/>
			</g>
		</g>
		<polygon style="fill:#2B292A;" points="878.102,276.602 919.805,261.599 945.982,199.625 960.401,200.56 943.316,268.684 
			928.164,285.929 876.76,311.711 		"/>
		<polygon style="fill:#C1755D;" points="957.314,200.36 961.031,193.197 958.444,178 950.182,180.109 948.848,191.727 
			944.776,193.854 945.982,199.625 		"/>
		<g>
			<g>
				<g>
					
						<ellipse transform="matrix(0.7071 -0.7071 0.7071 0.7071 84.9125 754.239)" style="fill:#BCBEC0;" cx="952.903" cy="274.621" rx="83.736" ry="83.736"/>
				</g>
			</g>
			<g>
				<g>
					
						<ellipse transform="matrix(0.7071 -0.7071 0.7071 0.7071 84.9124 754.239)" style="fill:#CCCDCE;" cx="952.903" cy="274.621" rx="71.066" ry="71.066"/>
				</g>
			</g>
			<g>
				<g>
					<path style="fill:#9D9D9E;" d="M989.979,213.902c7.096,11.036,11.222,24.165,11.247,38.26
						c0.068,39.248-31.694,71.121-70.943,71.189c-13.631,0.024-26.37-3.795-37.199-10.43c12.664,19.696,34.788,32.726,59.942,32.682
						c39.249-0.068,71.011-31.94,70.943-71.189C1023.924,248.797,1010.329,226.372,989.979,213.902z"/>
				</g>
			</g>
			<g>
				<g>
					<path style="fill:#F7F7F7;" d="M894.298,281.225c-0.06-34.646,27.977-62.781,62.624-62.841
						c20.251-0.035,38.274,9.532,49.77,24.405c-10.865-18.787-31.191-31.412-54.452-31.372
						c-34.646,0.06-62.684,28.195-62.624,62.841c0.025,14.395,4.9,27.647,13.071,38.219
						C897.37,303.282,894.318,292.611,894.298,281.225z"/>
				</g>
			</g>
			<g>
				<path style="fill:#A9A9AA;" d="M958.69,228.742l0.016,9.054c3.634,0.579,6.609,1.775,8.921,3.588
					c2.313,1.813,4.519,4.596,6.62,8.349l-8.998,5.051c-2.719-4.922-6.265-7.38-10.637-7.372c-2.71,0.005-4.957,0.81-6.74,2.414
					c-1.784,1.604-2.673,3.608-2.669,6.009c0.004,2.187,0.73,4.002,2.18,5.447c1.418,1.414,4.285,3.087,8.6,5.02
					c3.729,1.687,6.811,3.276,9.247,4.765c2.435,1.49,4.27,2.926,5.504,4.309c3.486,3.751,5.234,8.29,5.244,13.617
					c0.009,5.236-1.553,9.858-4.688,13.866c-3.104,3.978-7.257,6.664-12.458,8.059l0.017,9.562l-8.084,0.014l-0.016-9.285
					c-6.037-0.975-10.645-3.045-13.822-6.212c-3.177-3.166-5.527-8.058-7.047-14.677l10.159-2.143
					c1.394,4.679,3.093,8.017,5.099,10.015c2.097,1.906,4.885,2.856,8.366,2.85c3.387-0.006,6.218-1.104,8.493-3.294
					c2.244-2.159,3.364-4.948,3.358-8.367c-0.005-3.048-0.949-5.495-2.83-7.34c-0.957-0.891-2.367-1.897-4.232-3.018
					c-1.865-1.121-4.246-2.34-7.143-3.66c-5.979-2.669-9.91-5.126-11.792-7.37c-2.993-3.351-4.493-7.367-4.501-12.048
					c-0.004-2.217,0.346-4.281,1.051-6.192c0.705-1.91,1.726-3.644,3.063-5.202c1.337-1.557,2.99-2.907,4.959-4.05
					c1.968-1.142,4.2-2.04,6.693-2.691l-0.016-9.054L958.69,228.742z"/>
			</g>
		</g>
		<g>
			<g>
				<path style="fill:#FFFFFF;" d="M303.246,432.721c-4.331-9.594-11.872-16.79-21.167-20.392c0.054-1.361,0.08-2.717,0.08-4.06
					c0-14.022-2.749-27.629-8.17-40.446c-5.234-12.375-12.724-23.485-22.262-33.022c-9.537-9.537-20.647-17.027-33.022-22.262
					c-12.817-5.421-26.424-8.17-40.446-8.17c-14.022,0-27.629,2.749-40.446,8.17c-12.375,5.234-23.485,12.725-33.022,22.262
					c-9.537,9.537-17.027,20.647-22.262,33.022c-5.421,12.817-8.17,26.424-8.17,40.446c0,14.022,2.749,27.629,8.17,40.446
					c5.234,12.374,12.724,23.484,22.262,33.022c9.537,9.538,20.648,17.028,33.022,22.262c12.817,5.421,26.424,8.17,40.446,8.17
					c14.022,0,27.629-2.749,40.447-8.17c0.56-0.237,1.125-0.483,1.695-0.736l4.702,3.723c4.559,3.61,9.077,7.055,11.365,8.787
					c1.599,1.211,2.949,2.222,3.905,2.932c0.665,0.493,1.236,0.917,1.777,1.267c0.543,0.375,1.918,1.254,3.958,1.257
					c0.01,0,0.022,0,0.032,0c0.452,0,0.841-0.019,1.207-0.075l0.56-0.001l0.417-0.253c1.132-0.426,2.402-1.36,5.072-3.324
					c0.618-0.455,1.53-1.128,2.662-1.97l1.074-0.799c1.138-0.85,2.439-1.825,3.844-2.887c5.335-4.035,12.561-9.616,16.683-13.289
					c10.967-9.771,18.948-19.228,24.4-28.911C308.276,458.678,308.72,444.848,303.246,432.721z"/>
			</g>
			<g>
				<g>
					<g>
						<g>
							<g>
								<g>
									<g>
										<path style="fill:#587BC9;" d="M179.024,505.304c-13.097,0-25.806-2.566-37.772-7.628
											c-11.555-4.888-21.932-11.883-30.842-20.793c-8.91-8.91-15.906-19.287-20.793-30.842
											c-5.061-11.966-7.627-24.674-7.627-37.772c0-13.097,2.566-25.806,7.627-37.772c4.888-11.555,11.883-21.932,20.793-30.842
											c8.91-8.91,19.287-15.906,30.842-20.793c11.966-5.061,24.674-7.627,37.772-7.627c13.097,0,25.806,2.566,37.772,7.627
											c11.555,4.888,21.932,11.883,30.842,20.793c8.91,8.91,15.906,19.287,20.793,30.842
											c5.061,11.966,7.627,24.674,7.627,37.772c0,13.097-2.566,25.806-7.627,37.772c-4.888,11.555-11.883,21.932-20.793,30.842
											c-8.91,8.91-19.287,15.906-30.842,20.793C204.83,502.738,192.122,505.304,179.024,505.304z M179.024,321
											c-23.31,0-45.226,9.078-61.708,25.561c-16.483,16.483-25.561,38.398-25.561,61.709c0,23.311,9.078,45.226,25.561,61.709
											c16.483,16.483,38.398,25.56,61.708,25.56s45.226-9.078,61.709-25.56c16.483-16.483,25.56-38.398,25.56-61.709
											c0-23.31-9.078-45.226-25.56-61.709C224.25,330.078,202.335,321,179.024,321z"/>
									</g>
									<g>
										<rect x="174.141" y="316.118" style="fill:#587BC9;" width="9.765" height="184.304"/>
									</g>
								</g>
								<g>
									<rect x="92.249" y="373.264" style="fill:#587BC9;" width="175.1" height="9.765"/>
								</g>
								<g>
									<rect x="89.368" y="429.185" style="fill:#587BC9;" width="178.147" height="9.766"/>
								</g>
								<g>
									<path style="fill:#587BC9;" d="M174.712,504.29c-0.541-0.376-13.391-9.393-26.33-26.053
										c-7.609-9.798-13.678-20.232-18.037-31.014c-5.474-13.539-8.25-27.651-8.25-41.945c0-14.322,2.787-28.147,8.282-41.088
										c4.386-10.328,10.492-20.104,18.15-29.058c13.026-15.23,25.987-22.789,26.533-23.104l4.877,8.461
										c-0.115,0.067-12.27,7.201-24.216,21.258c-6.951,8.18-12.482,17.082-16.439,26.46c-4.924,11.669-7.42,24.141-7.42,37.071
										c0,13.033,2.536,25.914,7.538,38.284c4.022,9.947,9.639,19.598,16.696,28.685c12.033,15.495,24.07,23.94,24.19,24.023
										L174.712,504.29z"/>
								</g>
								<g>
									<path style="fill:#587BC9;" d="M184.627,504.29l-5.576-8.017c0.122-0.085,12.356-8.708,24.39-24.279
										c7.008-9.069,12.584-18.695,16.573-28.612c4.954-12.315,7.465-25.135,7.465-38.104c0-13.004-2.525-25.543-7.505-37.271
										c-3.995-9.408-9.574-18.333-16.583-26.527c-11.946-13.968-23.869-20.922-23.988-20.99l4.876-8.461
										c0.545,0.314,13.507,7.874,26.533,23.104c7.658,8.954,13.764,18.73,18.15,29.058c5.496,12.942,8.282,26.766,8.282,41.088
										c0,14.293-2.776,28.405-8.25,41.945c-4.359,10.781-10.427,21.216-18.037,31.014
										C198.019,494.897,185.168,503.914,184.627,504.29z"/>
								</g>
							</g>
						</g>
					</g>
				</g>
				<g>
					<g>
						<g>
							<path style="fill:#F4BDB8;" d="M271.616,416.719c-9.47-0.828-21.416,4.253-24.302,12.457
								c-2.803-8.23-17.312-13.353-26.789-12.613c-25.011,1.953-33.617,30.234-23.113,49.328
								c5.653,10.277,13.806,19.277,22.71,27.366c7.456,6.773,26.703,21.155,26.762,21.107c0.059,0.049,19.45-14.155,26.974-20.859
								c8.985-8.006,17.229-16.93,22.986-27.154C307.539,447.355,296.606,418.904,271.616,416.719z"/>
						</g>
						<g style="opacity:0.12;">
							<path style="fill:#000100;" d="M291.431,468.31c-6.269,7.617-13.521,14.762-21.385,20.889
								c-7.605,5.925-16.506,11.076-26.283,12.766c-4.697,0.812-9.29,0.675-13.633-0.361c7.942,6.288,16.577,12.72,16.616,12.688
								c0.059,0.049,19.45-14.155,26.974-20.859c8.985-8.006,17.229-16.93,22.986-27.154c1.863-3.308,3.068-6.903,3.659-10.596
								C297.749,460.108,294.718,464.317,291.431,468.31z"/>
						</g>
					</g>
				</g>
			</g>
		</g>
		<g>
			<g>
				<path style="fill:#F4D0C1;" d="M81.156,433.27c0.905,3.577,7.156,11.099,11.093,11.674c9.087,1.328,1.959-8.475,0.256-12.417
					c1.559-0.178,3.072-0.302,4.538-0.769c1.344-0.428-7.297-10.49-9.025-11.047c-4.147-1.336-5.784,0.9-9.355,2.839
					C79.567,426.76,80.337,430.027,81.156,433.27z"/>
			</g>
			<polygon style="fill:#BCBEC0;" points="122.025,263.689 42.909,363.959 77.389,427.82 93.349,423.505 76.272,369.714 
				98.052,341.655 141.496,307.88 			"/>
		</g>
		<path style="fill:#2E3644;" d="M131.102,270.96c3.686-1.163,7.335-2.434,10.123-5.655c4.507-5.205,5.625-14.801,7.638-21.185
			c2.119-6.73,4.645-14.007,10.6-17.791c3.889-2.471,7.877-2.402,12.234-1.748c2.984,0.448,2.91,1.593,5.692,0.416
			c2.132-0.902,4.389-4.281,5.191-6.344c1.353-3.479,0.54-7.522-1.373-10.727c-2.943-4.933-6.928-7.804-12.431-8.848
			c-19.313-3.666-35.785,5.397-44.412,23.423c-4.147,8.664-3.895,19.124-8.161,27.417c-2.634,5.12-6.701,8.145-9.068,13.67
			c-6.142,14.337-17.591,32.071-19.544,47.63c-0.072,0.576-0.111,1.221,0.254,1.672c0.743,0.919,2.207,0.195,3.115-0.561
			c5.3-4.417,10.6-8.834,15.899-13.251c2.081-1.734,4.191-3.5,5.713-5.741c3.791-5.58,3.659-13.638,8.84-17.957
			C124.24,273.023,127.687,272.038,131.102,270.96z"/>
		<polygon style="fill:#F4D0C1;" points="328.32,416.308 342.493,424.436 346.231,418.53 337.758,410.815 340.822,408.842 
			327.846,403.365 323.132,408.98 		"/>
	</g>
</g>
</svg>
