<svg width="830" height="662" viewBox="0 0 830 662" fill="none" xmlns="http://www.w3.org/2000/svg">
<g clip-path="url(#clip0_15_44)">
<path d="M14.4817 198.706C12.6118 199.519 10.6207 199.634 8.70881 199.038C6.79692 198.442 5.03184 197.157 3.59136 195.311C2.15088 193.466 1.08588 191.126 0.503632 188.526C-0.0786136 185.927 -0.15754 183.16 0.27481 180.505C6.76184 143.009 31.4286 51.3139 121.29 12.7468C160.215 -3.95908 197.544 -4.24427 232.196 11.8929C260.702 25.1135 279.626 45.8021 288.678 55.8016C290.978 58.3297 292.461 62.0236 292.801 66.0707C293.14 70.1178 292.309 74.1866 290.489 77.382C290.467 77.4215 290.444 77.461 290.421 77.5002C288.553 80.7055 285.853 82.7624 282.903 83.2276C279.953 83.6928 276.99 82.5291 274.652 79.9873C258.251 62.0338 208.482 7.49166 127.819 42.1107C49.057 75.914 27.6621 154.982 22.1128 187.331C21.6914 190.003 20.7607 192.469 19.4182 194.47C18.0757 196.471 16.3707 197.934 14.4817 198.706Z" fill="#6C63FF"/>
<path d="M259.408 411.082C258.515 411.482 257.589 411.724 256.653 411.801C186.45 417.054 141.784 336.024 139.95 332.646L139.611 331.866C138.491 329.454 111.465 272.324 123.363 226.953C128.828 206.21 140.914 191.651 159.388 183.722C176.57 176.348 190.629 178.529 202.597 190.401C212.409 200.074 218.698 214.5 224.793 228.43C237.47 257.353 245.239 272.069 269.334 263.579C279.914 259.848 284.854 248.356 287.111 239.404C293.187 215.043 287.802 181.833 273.555 156.708C255.148 124.111 203.635 69.9696 140.078 97.2472C112.937 108.896 90.7252 131.85 75.8503 163.458C63.5275 189.689 56.3638 222.269 56.2068 252.651C55.9595 309.221 89.3294 383.645 89.6459 384.319C90.4142 386.026 90.933 387.927 91.1726 389.913C91.4122 391.899 91.3678 393.931 91.0421 395.893C90.7164 397.856 90.1158 399.71 89.2744 401.349C88.433 402.989 87.3674 404.382 86.1385 405.45C86.1044 405.479 86.0702 405.509 86.0358 405.538C83.5179 407.72 80.4833 408.438 77.5874 407.538C74.6916 406.637 72.1668 404.19 70.5584 400.726C69.0522 397.322 33.4202 317.969 33.7073 252.588C34.1069 181.721 65.1033 97.1434 133.526 67.7775C165.152 54.204 198.389 56.4854 229.666 74.3021C253.908 88.1957 276.344 111.195 291.177 137.458C310.123 170.98 316.798 214.86 308.173 249.108C302.423 271.94 290.519 287.694 274.699 293.326C233.468 307.898 217.316 271.21 205.536 244.447C193.439 217.01 186.748 204.145 165.841 213.118C154.361 218.045 147.289 225.94 144.314 237.283C140.267 252.789 144.103 272.664 148.034 286.597C148.074 286.743 148.115 286.888 148.156 287.033C153.195 304.742 161.06 320.634 171.157 333.512C187.332 354.265 217.361 383.851 255.634 380.998C258.56 380.746 261.438 382.118 263.635 384.814C265.833 387.51 267.169 391.308 267.351 395.373C267.353 395.422 267.355 395.472 267.357 395.521C267.447 398.968 266.717 402.36 265.28 405.173C263.843 407.985 261.779 410.062 259.408 411.082Z" fill="#6C63FF"/>
<path d="M174.277 440.213C172.814 440.842 171.274 441.053 169.75 440.832C168.227 440.611 166.751 439.962 165.413 438.926C130.788 411.67 106.481 375.011 88.9774 323.629L88.9069 323.312C77.8755 289.054 71.2348 236.713 85.8831 192.475C96.6972 159.833 116.996 136.89 146.114 124.393C180.553 109.612 212.62 120.495 238.939 155.713C250.908 171.967 260.642 191.12 267.661 212.23C268.78 216.028 268.778 220.285 267.655 224.081C266.532 227.877 264.379 230.907 261.661 232.514C258.943 234.121 255.879 234.178 253.132 232.671C250.384 231.164 248.174 228.215 246.979 224.462C241.036 206.843 232.83 190.877 222.763 177.349C202.477 150.535 178.895 142.606 152.59 153.895C129.859 163.651 114.206 180.898 106.193 205.164C94.6377 240.091 100.587 283.704 109.22 310.545C124.654 355.988 146.062 388.222 176.536 412.169C177.795 413.155 178.902 414.476 179.793 416.057C180.685 417.638 181.343 419.447 181.731 421.381C182.119 423.315 182.229 425.337 182.055 427.33C181.881 429.323 181.426 431.249 180.716 432.998C180.688 433.068 180.659 433.137 180.631 433.205C179.211 436.555 176.947 439.052 174.277 440.213Z" fill="#6C63FF"/>
<path d="M177.923 286.61C185.834 286.61 192.246 277.701 192.246 266.711C192.246 255.721 185.834 246.812 177.923 246.812C170.013 246.812 163.601 255.721 163.601 266.711C163.601 277.701 170.013 286.61 177.923 286.61Z" fill="#E6E6E6"/>
<path d="M436.171 509.696C435.876 509.696 435.58 509.665 435.288 509.603C434.529 509.447 433.8 509.083 433.143 508.533C432.487 507.983 431.915 507.257 431.461 506.398L423.594 491.577C423.139 490.72 422.81 489.747 422.625 488.713C422.441 487.679 422.405 486.605 422.52 485.552C422.634 484.499 422.897 483.488 423.293 482.576C423.689 481.664 424.21 480.869 424.827 480.237L492.088 411.316C492.705 410.684 493.406 410.226 494.15 409.97C494.894 409.714 495.667 409.664 496.425 409.823C497.183 409.982 497.911 410.347 498.567 410.897C499.224 411.447 499.796 412.172 500.251 413.029L508.117 427.848C509.036 429.579 509.423 431.747 509.192 433.874C508.961 436 508.131 437.913 506.885 439.19L439.624 508.111C438.625 509.14 437.415 509.696 436.171 509.696Z" fill="#6C63FF"/>
<path d="M483.94 454.205L473.646 434.812C472.797 433.214 472.441 431.214 472.654 429.25C472.868 427.287 473.634 425.522 474.784 424.344L514.172 376.396C515.322 375.218 516.762 374.722 518.175 375.019C519.588 375.316 520.858 376.38 521.706 377.978L540.532 409.223C541.38 410.821 541.737 412.822 541.523 414.785C541.31 416.748 540.544 418.513 539.394 419.691L491.475 455.786C490.324 456.965 488.885 457.46 487.472 457.163C486.059 456.867 484.788 455.803 483.94 454.205Z" fill="#2F2E41"/>
<path d="M547.229 661.576H533.976C532.428 661.574 530.945 660.718 529.85 659.198C528.756 657.678 528.14 655.616 528.139 653.466V499.985C528.14 497.835 528.756 495.774 529.85 494.253C530.945 492.733 532.428 491.878 533.976 491.875H547.229C548.777 491.878 550.261 492.733 551.355 494.253C552.449 495.774 553.065 497.835 553.067 499.985V653.466C553.065 655.616 552.449 657.678 551.355 659.198C550.261 660.718 548.777 661.574 547.229 661.576Z" fill="#6C63FF"/>
<path d="M573.445 661.576H560.19C558.643 661.574 557.159 660.718 556.065 659.198C554.97 657.678 554.355 655.616 554.353 653.466V499.985C554.355 497.835 554.97 495.774 556.065 494.253C557.159 492.733 558.643 491.878 560.19 491.875H573.445C574.992 491.878 576.476 492.733 577.57 494.253C578.665 495.774 579.28 497.835 579.282 499.985V653.466C579.28 655.616 578.665 657.678 577.57 659.198C576.476 660.718 574.992 661.574 573.445 661.576Z" fill="#6C63FF"/>
<path d="M697.721 659.204H406.734V662H697.721V659.204Z" fill="#3F3D56"/>
<path d="M547.987 310.995C574.53 310.995 596.048 281.099 596.048 244.221C596.048 207.343 574.53 177.447 547.987 177.447C521.443 177.447 499.925 207.343 499.925 244.221C499.925 281.099 521.443 310.995 547.987 310.995Z" fill="#6C63FF"/>
<path d="M622.393 582.878L594.56 411.142V370.566C594.56 367.919 593.803 365.38 592.455 363.508C591.108 361.637 589.281 360.585 587.375 360.585H560.713V334.492C560.713 333.182 560.527 331.884 560.166 330.673C559.805 329.462 559.276 328.361 558.609 327.435C557.942 326.508 557.15 325.772 556.278 325.271C555.406 324.769 554.472 324.511 553.529 324.511H539.16C538.217 324.511 537.283 324.769 536.411 325.271C535.539 325.772 534.747 326.508 534.08 327.435C533.413 328.361 532.884 329.462 532.523 330.673C532.162 331.884 531.976 333.182 531.976 334.492V360.585H505.314C503.408 360.585 501.581 361.637 500.234 363.508C498.886 365.38 498.129 367.919 498.129 370.566V584.025C498.13 585.305 498.308 586.573 498.654 587.759C498.979 589.891 499.807 591.811 501.008 593.214C502.208 594.617 503.711 595.423 505.279 595.503L617.913 600.72C624.644 600.966 627.698 588.802 622.393 582.878Z" fill="#2F2E41"/>
<path d="M548.449 267.944C545.48 267.828 541.785 267.684 538.94 264.796C538.092 263.901 537.396 262.759 536.899 261.451C536.403 260.142 536.118 258.699 536.066 257.222C536.014 256.171 536.138 255.118 536.428 254.146C536.718 253.173 537.165 252.306 537.736 251.613C539.225 249.869 541.397 249.461 543.733 250.415L541.309 225.802L543.089 225.464L545.938 254.398L544.452 253.451C542.729 252.352 540.365 251.794 538.896 253.519C538.535 253.97 538.253 254.531 538.074 255.158C537.894 255.785 537.822 256.461 537.861 257.133C537.904 258.232 538.118 259.306 538.487 260.28C538.856 261.255 539.371 262.108 539.999 262.78C542.214 265.028 545.159 265.32 548.499 265.449L548.449 267.944Z" fill="#2F2E41"/>
<path d="M532.509 227.926H522.836V230.422H532.509V227.926Z" fill="#2F2E41"/>
<path d="M563.042 227.926H553.369V230.422H563.042V227.926Z" fill="#2F2E41"/>
<path d="M505.899 201.06C497.362 193.872 493.341 180.236 493.334 166.749C493.329 159.561 494.453 152.457 496.626 145.934C498.799 139.41 501.97 133.623 505.917 128.976C514.71 118.41 526.42 113.239 537.86 111.926C551.701 110.336 565.453 114.516 578.671 119.851C592.825 125.563 606.694 132.751 621.183 136.75C635.242 140.631 649.339 141.014 663.181 135.402C675.957 130.222 688.926 121.069 702.572 122.655C714.358 124.025 723.309 134.922 729.33 148.386C741.284 175.115 742.229 210.992 759.42 233.25C766.853 242.874 776.536 247.233 786.213 250.492C795.494 253.616 805.393 255.618 813.909 261.942C823.041 268.723 828.569 281.467 827.14 296.071C825.518 312.657 817.023 326.932 807.67 336.676C797.824 346.804 786.477 353.753 774.453 357.018C762.43 360.282 750.034 359.78 738.168 355.548C713.354 346.402 693.189 319.682 666.751 318.008C652.002 317.074 637.481 322.656 622.734 321.73C612.514 321.089 601.514 315.84 594.396 305.28C590.979 300.339 588.844 293.957 588.328 287.142C588.167 284.765 585.471 284.741 585.634 287.142C586.645 302.061 594.548 313.08 603.98 319.138C608.945 322.303 614.246 324.33 619.678 325.142C626.894 326.249 634.252 325.201 641.435 324.107C649.028 322.951 656.633 321.526 664.288 321.654C671.275 321.808 678.199 323.519 684.796 326.721C697.463 332.757 708.875 342.772 720.976 350.572C732.688 358.121 744.953 362.801 757.925 362.917C770.429 363.004 782.798 359.318 794.176 352.116C805.382 345.024 815.911 334.437 822.888 320.166C829.429 306.785 832.863 289.232 826.977 274.253C822.363 262.512 813.564 256.571 804.691 252.914C794.856 248.859 784.577 247.007 774.949 241.957C769.918 239.445 765.289 235.588 761.325 230.603C757.072 224.869 753.568 218.152 750.97 210.752C745.458 195.813 742.641 179.406 738 163.976C733.7 149.683 727.816 135.277 718.339 126.469C713.245 121.788 707.327 119.133 701.225 118.794C694.474 118.369 687.765 120.523 681.348 123.236C674.558 126.107 667.933 129.694 661.091 132.336C653.885 135.124 646.414 136.364 638.938 136.012C623.562 135.316 608.709 128.97 594.153 122.572C568.653 111.364 540.293 99.3645 514.656 116.642C504.667 123.374 496.205 134.668 492.638 149.499C489.481 162.622 489.918 177.93 494.784 190.156C497.091 195.971 500.454 200.845 504.539 204.292C506.026 205.544 507.381 202.309 505.899 201.06Z" fill="#2F2E41"/>
<path d="M580.2 534.742H566.946C565.398 534.739 563.914 533.884 562.82 532.364C561.726 530.844 561.11 528.782 561.108 526.632V420.263C561.11 418.113 561.726 416.051 562.82 414.531C563.914 413.011 565.398 412.155 566.946 412.153H580.2C581.748 412.155 583.231 413.011 584.326 414.531C585.42 416.051 586.035 418.113 586.037 420.263V526.632C586.035 528.782 585.42 530.844 584.326 532.364C583.231 533.884 581.748 534.739 580.2 534.742Z" fill="#6C63FF"/>
<path d="M529.038 184.539C529.333 187.471 530.212 190.231 531.576 192.506C532.94 194.781 534.734 196.481 536.756 197.416C538.779 198.35 540.949 198.48 543.022 197.792C545.094 197.105 546.988 195.626 548.488 193.523L546.236 192.697C547.492 197.161 549.598 201.067 552.327 203.998C555.057 206.929 558.308 208.775 561.734 209.338C565.16 209.901 568.632 209.161 571.778 207.196C574.925 205.232 577.628 202.116 579.599 198.183C580.614 196.225 578.278 194.354 577.273 196.294C575.574 199.599 573.268 202.21 570.596 203.857C567.924 205.503 564.982 206.125 562.079 205.656C559.175 205.187 556.415 203.645 554.085 201.191C551.756 198.737 549.943 195.46 548.834 191.702C548.767 191.392 548.643 191.11 548.475 190.885C548.307 190.66 548.1 190.498 547.875 190.415C547.649 190.332 547.412 190.331 547.185 190.412C546.959 190.493 546.752 190.653 546.583 190.876C545.414 192.517 543.934 193.663 542.314 194.179C540.695 194.696 539.003 194.562 537.436 193.793C535.87 193.024 534.492 191.653 533.465 189.838C532.438 188.023 531.804 185.841 531.636 183.544C531.395 181.169 528.799 182.179 529.038 184.539Z" fill="#2F2E41"/>
<path d="M444.118 450.273L443.837 450.538L438.621 439.849C438.225 439.037 437.717 438.341 437.127 437.801C436.537 437.261 435.877 436.888 435.183 436.703C434.489 436.518 433.776 436.525 433.084 436.723C432.392 436.921 431.735 437.306 431.15 437.857L414.851 453.209C414.267 453.759 413.766 454.465 413.377 455.284C412.989 456.104 412.72 457.022 412.587 457.986C412.454 458.95 412.459 459.94 412.601 460.902C412.744 461.863 413.021 462.776 413.417 463.588L442.03 522.226C442.426 523.038 442.934 523.734 443.524 524.274C444.114 524.814 444.774 525.187 445.468 525.372C446.162 525.557 446.875 525.55 447.567 525.352C448.259 525.154 448.916 524.769 449.5 524.218L465.799 508.867C466.384 508.316 466.885 507.611 467.274 506.791C467.662 505.971 467.931 505.053 468.064 504.089C468.197 503.126 468.192 502.135 468.05 501.173C467.907 500.212 467.63 499.299 467.233 498.487L447.549 458.146L447.83 457.881L444.118 450.273Z" fill="#3F3D56"/>
<path d="M432.383 440.632L430.324 442.572C430.576 442.805 430.783 443.121 430.927 443.492C431.07 443.862 431.146 444.277 431.147 444.697C431.149 445.118 431.075 445.533 430.934 445.906C430.792 446.278 430.587 446.596 430.337 446.832L421.299 455.345C421.048 455.581 420.759 455.728 420.458 455.772C420.157 455.817 419.852 455.758 419.571 455.601C419.29 455.443 419.042 455.192 418.847 454.87C418.652 454.547 418.518 454.163 418.455 453.751L416.531 455.563C416.109 455.961 415.747 456.471 415.466 457.064C415.185 457.656 414.991 458.32 414.895 459.017C414.798 459.713 414.802 460.429 414.905 461.124C415.008 461.819 415.208 462.479 415.495 463.066L443.148 519.738C443.434 520.326 443.801 520.829 444.228 521.219C444.654 521.609 445.132 521.879 445.633 522.012C446.135 522.146 446.65 522.141 447.15 521.998C447.65 521.855 448.125 521.577 448.548 521.179L464.4 506.248C465.253 505.444 465.842 504.202 466.036 502.795C466.231 501.388 466.015 499.931 465.436 498.745L437.783 442.073C437.497 441.486 437.13 440.983 436.703 440.593C436.277 440.202 435.799 439.933 435.298 439.799C434.796 439.665 434.281 439.67 433.78 439.813C433.28 439.956 432.806 440.234 432.383 440.632Z" fill="white"/>
</g>
<defs>
<clipPath id="clip0_15_44">
<rect width="830" height="662" fill="white"/>
</clipPath>
</defs>
</svg>
