<svg width="594" height="499" viewBox="0 0 594 499" fill="none" xmlns="http://www.w3.org/2000/svg">
<g clip-path="url(#clip0_6_6)">
<path d="M118.351 499C183.714 499 236.701 494.141 236.701 488.147C236.701 482.153 183.714 477.294 118.351 477.294C52.9874 477.294 0 482.153 0 488.147C0 494.141 52.9874 499 118.351 499Z" fill="#E6E6E6"/>
<path d="M90.465 110.719C111.062 100.142 136.715 106.844 161.768 111.495C162.001 105.862 164.827 99.0068 161.867 95.0771C158.271 90.3028 158.602 85.2864 160.766 80.2411C166.3 67.3394 158.371 53.6114 150.366 42.1967C148.561 39.6297 146.281 37.6127 143.71 36.3097C141.139 35.0067 138.349 34.4543 135.568 34.6974L120.739 35.9764C117.13 36.2876 113.686 37.922 110.868 40.661C108.05 43.4 105.991 47.1129 104.969 51.3029C101.428 57.1176 99.5325 62.9162 100.726 68.6846C95.422 73.061 94.5309 78.3437 96.9142 84.299C98.9351 88.0487 98.9136 91.6986 96.8223 95.2476C94.0757 99.7722 91.972 104.817 90.5975 110.176L90.465 110.719Z" fill="#2F2E41"/>
<path d="M579.924 431.377H160.141C156.408 431.377 152.828 429.587 150.188 426.4C147.549 423.213 146.066 418.89 146.066 414.382C298.237 393.029 447.548 393.029 594 414.382C594 418.89 592.517 423.213 589.877 426.4C587.238 429.587 583.657 431.377 579.924 431.377Z" fill="#2F2E41"/>
<path d="M594 415.382L146.066 414.382L197.98 308.912L198.228 308.412V75.9684C198.228 73.1471 198.688 70.3533 199.582 67.7466C200.476 65.14 201.787 62.7715 203.439 60.7765C205.091 58.7815 207.053 57.199 209.212 56.1194C211.371 55.0398 213.684 54.4843 216.021 54.4845H521.56C523.897 54.4843 526.211 55.0398 528.37 56.1194C530.529 57.199 532.49 58.7815 534.143 60.7765C535.795 62.7715 537.105 65.14 538 67.7466C538.894 70.3533 539.354 73.1471 539.354 75.9684V310.012L594 415.382Z" fill="#3F3D56"/>
<path d="M215.615 69.4803C214.079 69.4823 212.606 70.2203 211.519 71.5322C210.432 72.8442 209.821 74.6229 209.82 76.4783V288.418C209.821 290.273 210.433 292.052 211.519 293.364C212.606 294.676 214.079 295.414 215.615 295.416H524.45C525.987 295.414 527.46 294.676 528.546 293.364C529.633 292.052 530.244 290.273 530.246 288.418V76.4783C530.244 74.6229 529.633 72.8442 528.546 71.5323C527.46 70.2204 525.987 69.4824 524.45 69.4803H215.615Z" fill="white"/>
<path d="M216.91 323.408C216.435 323.409 215.97 323.574 215.57 323.883C215.17 324.193 214.852 324.633 214.653 325.154L198.657 367.142C198.482 367.599 198.406 368.101 198.435 368.603C198.464 369.105 198.597 369.59 198.821 370.013C199.046 370.437 199.355 370.785 199.721 371.027C200.086 371.268 200.496 371.394 200.913 371.395H537.307C537.731 371.395 538.147 371.264 538.517 371.015C538.887 370.766 539.197 370.407 539.42 369.972C539.643 369.537 539.769 369.041 539.788 368.53C539.807 368.019 539.718 367.511 539.528 367.054L522.141 325.066C521.936 324.567 521.619 324.147 521.226 323.854C520.834 323.561 520.381 323.406 519.92 323.408H216.91Z" fill="#2F2E41"/>
<path d="M368.791 65.9813C370.849 65.9813 372.517 63.9671 372.517 61.4825C372.517 58.998 370.849 56.9838 368.791 56.9838C366.733 56.9838 365.065 58.998 365.065 61.4825C365.065 63.9671 366.733 65.9813 368.791 65.9813Z" fill="white"/>
<path d="M335.726 379.392C335.18 379.393 334.649 379.611 334.216 380.012C333.783 380.413 333.47 380.975 333.328 381.611L329.315 399.606C329.216 400.051 329.203 400.517 329.277 400.968C329.351 401.42 329.51 401.845 329.742 402.21C329.974 402.576 330.272 402.872 330.614 403.076C330.956 403.279 331.332 403.385 331.714 403.385H408.023C408.419 403.385 408.809 403.271 409.161 403.052C409.513 402.833 409.816 402.515 410.046 402.126C410.276 401.736 410.425 401.286 410.481 400.813C410.537 400.34 410.499 399.857 410.369 399.405L405.21 381.41C405.041 380.821 404.724 380.31 404.304 379.949C403.883 379.587 403.38 379.392 402.863 379.392H335.726Z" fill="#2F2E41"/>
<path d="M539.353 304.913V308.912H197.979L198.236 308.413V304.913H539.353Z" fill="#2F2E41"/>
<path d="M529.832 139.96C561.841 139.96 587.79 108.629 587.79 69.9801C587.79 31.3312 561.841 0 529.832 0C497.823 0 471.874 31.3312 471.874 69.9801C471.874 108.629 497.823 139.96 529.832 139.96Z" fill="#FFB854"/>
<path d="M553.843 100.471H505.821C504.943 100.47 504.101 100.049 503.48 99.2991C502.859 98.5494 502.51 97.5329 502.509 96.4726V61.4825C502.51 60.4223 502.859 59.4058 503.48 58.6562C504.101 57.9065 504.943 57.4848 505.821 57.4837H553.843C554.721 57.4848 555.563 57.9065 556.184 58.6562C556.805 59.4058 557.154 60.4223 557.155 61.4825V96.4726C557.154 97.5328 556.805 98.5494 556.184 99.2991C555.563 100.049 554.721 100.47 553.843 100.471ZM505.821 61.4826V96.4726H553.846L553.843 61.4825L505.821 61.4826Z" fill="white"/>
<path d="M544.735 61.4825H514.928V45.4871C514.928 33.9015 521.196 25.4927 529.832 25.4927C538.467 25.4927 544.735 33.9015 544.735 45.4871L544.735 61.4825ZM518.24 57.4837H541.423V45.4871C541.423 36.0693 536.657 29.4916 529.832 29.4916C523.007 29.4916 518.24 36.0693 518.24 45.4871L518.24 57.4837Z" fill="white"/>
<path d="M529.832 81.9767C531.661 81.9767 533.144 80.1863 533.144 77.9778C533.144 75.7693 531.661 73.979 529.832 73.979C528.003 73.979 526.52 75.7693 526.52 77.9778C526.52 80.1863 528.003 81.9767 529.832 81.9767Z" fill="white"/>
<path d="M489.372 223.528H250.694C249.522 223.527 248.398 222.964 247.57 221.963C246.741 220.963 246.275 219.606 246.274 218.192V146.705C246.275 145.29 246.741 143.933 247.57 142.933C248.398 141.933 249.522 141.37 250.694 141.368H489.372C490.544 141.37 491.667 141.933 492.496 142.933C493.325 143.933 493.791 145.29 493.792 146.705V218.192C493.791 219.606 493.325 220.963 492.496 221.963C491.667 222.964 490.544 223.527 489.372 223.528ZM250.694 143.503C249.99 143.504 249.316 143.841 248.819 144.442C248.322 145.042 248.042 145.856 248.042 146.705V218.192C248.042 219.04 248.322 219.854 248.819 220.455C249.316 221.055 249.99 221.393 250.694 221.394H489.372C490.075 221.393 490.749 221.055 491.246 220.455C491.744 219.854 492.023 219.04 492.024 218.192V146.705C492.023 145.856 491.744 145.042 491.246 144.442C490.749 143.841 490.075 143.504 489.372 143.503L250.694 143.503Z" fill="#E6E6E6"/>
<path d="M287.779 201.444C297.723 201.444 305.784 191.711 305.784 179.705C305.784 167.699 297.723 157.966 287.779 157.966C277.836 157.966 269.775 167.699 269.775 179.705C269.775 191.711 277.836 201.444 287.779 201.444Z" fill="#E6E6E6"/>
<path d="M329.361 165.212C328.967 165.212 328.576 165.305 328.212 165.487C327.847 165.668 327.516 165.935 327.237 166.272C326.957 166.608 326.736 167.008 326.585 167.448C326.434 167.888 326.356 168.359 326.356 168.836C326.356 169.312 326.434 169.784 326.585 170.224C326.736 170.663 326.957 171.063 327.237 171.4C327.516 171.736 327.847 172.003 328.212 172.185C328.576 172.366 328.967 172.46 329.361 172.459H470.826C471.622 172.459 472.385 172.077 472.948 171.398C473.511 170.718 473.827 169.797 473.827 168.836C473.827 167.875 473.511 166.953 472.948 166.274C472.385 165.594 471.622 165.212 470.826 165.212H329.361Z" fill="#E6E6E6"/>
<path d="M329.361 186.952C328.565 186.952 327.802 187.333 327.239 188.013C326.677 188.692 326.361 189.614 326.361 190.575C326.361 191.536 326.677 192.457 327.239 193.137C327.802 193.816 328.565 194.198 329.361 194.198H390.234C391.03 194.198 391.793 193.816 392.356 193.137C392.919 192.457 393.235 191.536 393.235 190.575C393.235 189.614 392.919 188.692 392.356 188.013C391.793 187.333 391.03 186.952 390.234 186.952H329.361Z" fill="#E6E6E6"/>
<path d="M197.392 188.417L153.271 216.74L152.712 193.138C167.113 190.235 180.814 185.181 193.483 176.953L198.097 163.188C198.6 161.688 199.417 160.372 200.469 159.368C201.52 158.365 202.77 157.709 204.094 157.465C205.419 157.22 206.774 157.396 208.025 157.975C209.277 158.554 210.382 159.516 211.233 160.766C212.478 162.596 213.1 164.928 212.973 167.29C212.847 169.653 211.982 171.869 210.553 173.49L197.392 188.417Z" fill="#FFB8B8"/>
<path d="M89.5855 351.942C89.2636 350.516 89.1953 349.025 89.385 347.565C89.5747 346.106 90.0181 344.711 90.6861 343.473L100.378 325.514C102.671 321.266 106.188 318.197 110.249 316.904C114.309 315.611 118.622 316.184 122.352 318.514C118.278 326.886 118.846 334.23 123.759 340.612C116.133 345.107 109.085 350.909 102.833 357.837C101.692 358.777 100.381 359.373 99.01 359.577C97.639 359.781 96.2475 359.587 94.9514 359.01C93.6554 358.433 92.4922 357.491 91.5588 356.261C90.6254 355.032 89.9489 353.551 89.5855 351.942Z" fill="#2F2E41"/>
<path d="M199.402 328.459C197.935 331.41 195.865 333.857 193.389 335.564C190.914 337.271 188.117 338.182 185.266 338.208L120.878 338.797L118.085 319.241L146.569 309.125L122.553 286.872L148.803 249.783L196.48 303.437C199.266 306.573 201.077 310.769 201.609 315.324C202.141 319.878 201.362 324.515 199.402 328.459Z" fill="#2F2E41"/>
<path d="M110.825 462.202H95.7451C82.2058 350.146 68.4242 237.776 109.149 195.835L157.18 205.276L151.037 254.503L124.229 291.592L110.825 462.202Z" fill="#2F2E41"/>
<path d="M124.08 487.586C122.9 487.975 121.664 488.058 120.456 487.829C119.247 487.6 118.092 487.064 117.067 486.258L100.693 483.601C97.1751 480.833 94.6337 476.586 93.5622 471.684C92.4908 466.781 92.9658 461.573 94.895 457.07C101.829 461.988 107.911 461.301 113.197 455.37C116.932 464.475 123.085 463.92 128.962 471.591C129.74 472.969 130.234 474.551 130.403 476.207C130.572 477.862 130.411 479.542 129.934 481.107C129.456 482.672 128.676 484.076 127.658 485.203C126.639 486.33 125.413 487.147 124.08 487.586Z" fill="#2F2E41"/>
<path d="M146.569 120.983L118.644 112.89C123.281 101.428 123.663 88.6734 121.436 75.127L140.425 74.4526C141.02 91.2979 142.82 107.036 146.569 120.983Z" fill="#FFB8B8"/>
<path d="M154.243 225.58C133.915 242.306 119.552 226.152 108.591 201.23C110.114 185.98 107.648 167.729 103.08 147.899C101.049 139.153 101.807 129.804 105.205 121.7C108.604 113.596 114.395 107.324 121.436 104.124L145.452 116.262C165.844 136.332 169.857 158.071 162.207 181L154.243 225.58Z" fill="#FFB854"/>
<path d="M95.7451 137.841L73.405 152.003L113.059 180.325L118.576 196.758C118.944 197.855 119.124 199.031 119.103 200.214C119.083 201.397 118.863 202.563 118.457 203.641C118.052 204.718 117.468 205.684 116.743 206.48C116.018 207.277 115.166 207.886 114.24 208.272C113.186 208.711 112.063 208.849 110.958 208.676C109.853 208.503 108.796 208.023 107.871 207.275C106.945 206.526 106.175 205.529 105.621 204.362C105.068 203.194 104.746 201.887 104.681 200.544L104.123 189.092L53.7234 169.01C52.0253 168.333 50.477 167.199 49.1958 165.693C47.9145 164.187 46.9339 162.349 46.3282 160.317C45.4454 157.356 45.4004 154.125 46.2004 151.13C47.0005 148.135 48.6003 145.544 50.7496 143.764L91.2771 110.193L95.7451 137.841Z" fill="#FFB8B8"/>
<path d="M118.085 140.539C108.768 135.609 100.296 140.964 89.6015 145.259L87.926 109.519C98.5447 102.685 108.669 100.843 118.085 106.147L118.085 140.539Z" fill="#FFB854"/>
<path d="M129.231 92.1561C139.077 92.1561 147.06 82.518 147.06 70.6289C147.06 58.7397 139.077 49.1016 129.231 49.1016C119.384 49.1016 111.401 58.7397 111.401 70.6289C111.401 82.518 119.384 92.1561 129.231 92.1561Z" fill="#FFB8B8"/>
<path d="M150.56 67.9126C132.908 70.0002 119.457 66.5144 110.86 56.5892V48.5961H149.062L150.56 67.9126Z" fill="#2F2E41"/>
</g>
<defs>
<clipPath id="clip0_6_6">
<rect width="594" height="499" fill="white"/>
</clipPath>
</defs>
</svg>
